<svg width="130" height="44" viewBox="0 0 130 44" fill="none" xmlns="http://www.w3.org/2000/svg">
<path d="M30.6777 0.667969C33.2305 0.667969 35.6469 1.17463 37.8489 2.09051C30.4049 1.33052 23.0583 4.95507 15.8482 13.0226C24.7732 6.29966 33.5813 3.53253 42.2919 4.70174C43.2857 5.5007 44.2016 6.3971 45.02 7.37144C37.1279 5.98787 29.3136 9.55396 21.6553 18.1282C30.0931 11.7949 38.414 8.96936 46.618 9.65139C47.1636 10.5673 47.6118 11.5416 47.982 12.5549C41.1227 11.9703 34.0684 15.1857 26.8583 22.2399C34.4192 17.3292 41.6878 14.9128 48.6836 15.0687C48.8979 16.1405 49.0148 17.2513 49.0148 18.401C49.0148 28.1639 40.7719 36.134 30.6777 36.134C20.5835 36.134 12.3406 28.1639 12.3406 18.401C12.3406 8.63808 20.5835 0.667969 30.6777 0.667969Z" fill="#1492C8"/>
<path d="M29.7999 27.8898H30.0143H128.267V26.7985L30.2481 26.8569L19.8616 26.5062C15.633 26.1749 12.3787 25.7072 10.1572 25.2201C6.41572 24.2652 4.27217 23.1155 3.72653 21.7124C3.20039 20.4847 3.94089 19.2766 5.98701 18.1853L10.3131 16.373L12.3397 15.691C12.8269 15.4377 12.6905 15.4182 11.9305 15.5546L9.06593 16.1782C7.85774 16.5094 6.8834 16.8017 6.00649 17.133C5.05164 17.4643 4.03832 17.8735 3.06398 18.4191C1.42709 19.3155 0.49172 20.2704 0.277365 21.2447C-0.053911 22.6088 1.09581 23.9144 3.64859 25.1616C5.42189 26.0385 7.74082 26.6426 10.5469 27.0518L18.1273 27.7339C20.8165 27.8508 24.7139 27.8898 29.7999 27.8898Z" fill="#F9F9F9"/>
<path d="M128.247 3.7824L124.505 6.70542C123.2 5.08801 121.855 4.28905 120.491 4.28905C119.828 4.28905 119.283 4.44495 118.854 4.75674C118.425 5.06853 118.211 5.41929 118.211 5.82851C118.211 6.23774 118.367 6.60799 118.659 6.93926C119.068 7.40695 120.316 8.42026 122.381 9.95972C124.31 11.3823 125.48 12.2981 125.889 12.6684C126.922 13.5843 127.643 14.4612 128.071 15.2991C128.5 16.137 128.714 17.0529 128.714 18.0468C128.714 19.9759 127.954 21.5739 126.454 22.821C124.953 24.0682 122.985 24.7112 120.549 24.7112C118.659 24.7112 117.003 24.302 115.6 23.4836C114.197 22.6651 112.988 21.379 111.995 19.6057L116.262 17.3257C117.548 19.3913 119.01 20.4436 120.686 20.4436C121.563 20.4436 122.284 20.2293 122.888 19.7811C123.472 19.3329 123.784 18.8067 123.784 18.2221C123.784 17.696 123.57 17.1504 123.122 16.6242C122.673 16.0981 121.699 15.2796 120.16 14.1689C117.256 12.0838 115.385 10.4664 114.547 9.33614C113.709 8.20591 113.281 7.07567 113.281 5.94543C113.281 4.30854 113.982 2.90549 115.385 1.75577C116.788 0.586558 118.523 0.00195312 120.588 0.00195312C121.913 0.00195312 123.18 0.274769 124.369 0.8204C125.557 1.36603 126.844 2.34037 128.247 3.7824ZM99.1723 13.8181V19.8395H100.458C102.582 19.8395 104.025 19.6057 104.765 19.138C105.506 18.6703 105.876 17.9883 105.876 17.0919C105.876 16.0786 105.447 15.2796 104.57 14.695C103.693 14.1104 102.251 13.8181 100.244 13.8181H99.1723ZM99.1723 4.85417V9.8428H100.303C101.569 9.8428 102.505 9.60896 103.109 9.14127C103.713 8.67359 104.025 8.05001 104.025 7.27054C104.025 6.53004 103.732 5.94543 103.148 5.51672C102.563 5.08801 101.686 4.87366 100.497 4.87366H99.1723V4.85417ZM94.1252 24.1072V0.586558H98.3149C100.751 0.586558 102.524 0.722966 103.654 0.995781C105.252 1.36603 106.519 2.06756 107.474 3.08087C108.409 4.09419 108.896 5.28288 108.896 6.66645C108.896 7.56284 108.682 8.38129 108.253 9.1023C107.824 9.8428 107.123 10.5248 106.168 11.1679C107.785 11.8305 108.955 12.6684 109.695 13.6817C110.436 14.695 110.806 15.8837 110.806 17.2478C110.806 18.5729 110.416 19.7616 109.656 20.8529C108.877 21.9441 107.883 22.7626 106.655 23.2887C105.428 23.8343 103.752 24.0877 101.589 24.0877L94.1252 24.1072ZM79.549 6.84183L75.944 14.9483H83.1346L79.549 6.84183ZM76.9963 0.586558H82.0823L92.3129 24.1072H87.0515L84.9859 19.2744H74.0927L71.9687 24.1266H66.7072L76.9963 0.586558ZM60.0427 9.80383H61.6601C62.9462 9.80383 63.8231 9.72588 64.3103 9.56998C64.817 9.41409 65.2067 9.14127 65.4795 8.77102C65.7718 8.40077 65.9082 7.95258 65.9082 7.42643C65.9082 6.51055 65.499 5.848 64.7001 5.43878C64.1154 5.12699 63.0437 4.97109 61.4652 4.97109H60.0427V9.80383ZM54.9956 0.586558H60.374C63.2775 0.586558 65.3626 0.8204 66.6487 1.28808C67.9349 1.75577 68.9482 2.53524 69.6887 3.58753C70.4292 4.63982 70.7994 5.92595 70.7994 7.40695C70.7994 9.04384 70.3123 10.4079 69.3379 11.4992C68.3636 12.5904 67.058 13.3504 65.3821 13.7791C64.4078 14.0325 62.615 14.1494 60.0427 14.1494V24.1072H55.0151V0.586558H54.9956Z" fill="#F9F9F9"/>
<path d="M115.015 40.1666L114.411 40.7707C114.158 40.5174 113.943 40.4005 113.749 40.4005C113.632 40.4005 113.554 40.42 113.495 40.4784C113.437 40.5174 113.398 40.5759 113.398 40.6538C113.398 40.7123 113.417 40.7512 113.456 40.7902C113.495 40.8292 113.593 40.8876 113.749 40.9656L114.099 41.141C114.47 41.3358 114.742 41.5112 114.879 41.7061C115.015 41.901 115.093 42.1348 115.093 42.3881C115.093 42.7389 114.957 43.0312 114.703 43.265C114.45 43.4989 114.099 43.6158 113.671 43.6158C113.105 43.6158 112.638 43.4014 112.306 42.9532L112.911 42.2907C113.028 42.4271 113.164 42.544 113.32 42.622C113.476 42.6999 113.612 42.7389 113.729 42.7389C113.865 42.7389 113.963 42.6999 114.041 42.6415C114.119 42.583 114.158 42.505 114.158 42.4271C114.158 42.2712 114.021 42.1348 113.729 41.9789L113.398 41.8035C112.755 41.4917 112.443 41.0825 112.443 40.6148C112.443 40.303 112.56 40.0497 112.794 39.8159C113.028 39.6015 113.339 39.4846 113.71 39.4846C113.963 39.4846 114.197 39.543 114.431 39.66C114.664 39.7964 114.859 39.9523 115.015 40.1666ZM110.825 41.0825C110.767 40.8682 110.631 40.6928 110.436 40.5564C110.241 40.42 110.027 40.3615 109.773 40.3615C109.5 40.3615 109.267 40.4394 109.052 40.5953C108.916 40.6928 108.799 40.8487 108.701 41.102H110.825V41.0825ZM111.8 41.8425H108.643C108.682 42.1153 108.818 42.3492 109.013 42.505C109.208 42.6609 109.461 42.7584 109.773 42.7584C110.143 42.7584 110.455 42.622 110.709 42.3686L111.527 42.7584C111.313 43.0507 111.079 43.265 110.787 43.4014C110.494 43.5378 110.163 43.6158 109.754 43.6158C109.15 43.6158 108.643 43.4209 108.253 43.0312C107.863 42.6415 107.669 42.1543 107.669 41.5697C107.669 40.9656 107.863 40.4784 108.253 40.0887C108.643 39.6989 109.13 39.5041 109.695 39.5041C110.319 39.5041 110.806 39.6989 111.196 40.0887C111.585 40.4784 111.78 41.0046 111.78 41.6476L111.8 41.8425ZM106.987 40.4005L106.168 40.8487C106.012 40.6928 105.856 40.5758 105.72 40.5174C105.564 40.4589 105.389 40.42 105.194 40.42C104.824 40.42 104.531 40.5369 104.297 40.7512C104.064 40.9656 103.966 41.2579 103.966 41.5892C103.966 41.9204 104.083 42.1933 104.297 42.4076C104.512 42.622 104.804 42.7194 105.155 42.7194C105.603 42.7194 105.934 42.5635 106.188 42.2712L106.967 42.7973C106.538 43.343 105.954 43.6158 105.194 43.6158C104.512 43.6158 103.966 43.4209 103.576 43.0117C103.187 42.6025 102.992 42.1348 102.992 41.5892C102.992 41.2189 103.089 40.8682 103.284 40.5369C103.479 40.2251 103.732 39.9718 104.083 39.7769C104.414 39.6015 104.804 39.5041 105.233 39.5041C105.623 39.5041 105.973 39.582 106.285 39.7379C106.538 39.8938 106.792 40.1082 106.987 40.4005ZM101.277 39.6015H102.251V43.5184H101.277V39.6015ZM101.764 37.9841C101.939 37.9841 102.076 38.0426 102.212 38.179C102.329 38.2959 102.407 38.4518 102.407 38.6272C102.407 38.8025 102.349 38.9584 102.232 39.0754C102.115 39.1923 101.959 39.2507 101.784 39.2507C101.608 39.2507 101.452 39.1923 101.335 39.0559C101.218 38.939 101.141 38.7831 101.141 38.6077C101.141 38.4323 101.199 38.2959 101.316 38.1595C101.452 38.062 101.589 37.9841 101.764 37.9841ZM96.8339 39.6015H97.8472L98.8411 41.9204L99.8349 39.6015H100.829L99.1334 43.5184H98.5098L96.8339 39.6015ZM94.6514 39.6015H95.5088V40.1082C95.6063 39.9133 95.7232 39.7574 95.8791 39.66C96.035 39.5625 96.1909 39.5041 96.3663 39.5041C96.5027 39.5041 96.6196 39.543 96.756 39.6015L96.4442 40.4589C96.3273 40.4005 96.2298 40.381 96.1519 40.381C95.996 40.381 95.8791 40.4784 95.7622 40.6538C95.6647 40.8487 95.6063 41.1994 95.6063 41.7451V41.9399V43.5184H94.6319L94.6514 39.6015ZM93.1119 41.0825C93.0535 40.8682 92.9171 40.6928 92.7222 40.5564C92.5273 40.42 92.313 40.3615 92.0597 40.3615C91.7868 40.3615 91.553 40.4394 91.3386 40.5953C91.2022 40.6928 91.0853 40.8487 90.9879 41.102H93.1119V41.0825ZM94.0863 41.8425H90.9294C90.9684 42.1153 91.1048 42.3492 91.2997 42.505C91.4945 42.6609 91.7479 42.7584 92.0597 42.7584C92.4299 42.7584 92.7417 42.622 92.995 42.3686L93.8135 42.7584C93.5991 43.0507 93.3653 43.265 93.073 43.4014C92.7807 43.5378 92.4494 43.6158 92.0402 43.6158C91.4361 43.6158 90.9294 43.4209 90.5397 43.0312C90.1499 42.6415 89.9551 42.1543 89.9551 41.5697C89.9551 40.9656 90.1499 40.4784 90.5397 40.0887C90.9294 39.6989 91.4166 39.5041 91.9817 39.5041C92.6053 39.5041 93.0925 39.6989 93.4822 40.0887C93.8719 40.4784 94.0668 41.0046 94.0668 41.6476L94.0863 41.8425ZM89.2146 38.939L88.4741 39.6015C88.2207 39.2313 87.9479 39.0559 87.6751 39.0559C87.5387 39.0559 87.4413 39.0948 87.3438 39.1533C87.2659 39.2313 87.2074 39.3092 87.2074 39.3872C87.2074 39.4846 87.2464 39.5625 87.3049 39.6405C87.3828 39.7379 87.6361 39.9718 88.0454 40.3225C88.4351 40.6538 88.6689 40.8487 88.7469 40.9266C88.9418 41.141 89.0977 41.3358 89.1756 41.5112C89.2535 41.7061 89.312 41.901 89.312 42.1348C89.312 42.5635 89.1561 42.9338 88.8638 43.2066C88.5715 43.4989 88.1623 43.6353 87.6946 43.6353C87.3244 43.6353 86.9931 43.5378 86.7008 43.3625C86.428 43.1676 86.1746 42.8948 85.9798 42.4856L86.8372 41.9789C87.0905 42.4466 87.3828 42.6804 87.7141 42.6804C87.8895 42.6804 88.0259 42.622 88.1428 42.5245C88.2597 42.4271 88.3182 42.3102 88.3182 42.1738C88.3182 42.0568 88.2792 41.9399 88.1818 41.823C88.0843 41.7061 87.8895 41.5112 87.5972 41.2774C87.0126 40.8097 86.6423 40.4394 86.4864 40.1861C86.311 39.9328 86.2331 39.6795 86.2331 39.4261C86.2331 39.0559 86.3695 38.7441 86.6618 38.4713C86.9346 38.1985 87.2854 38.0815 87.6946 38.0815C87.9674 38.0815 88.2207 38.14 88.4546 38.2569C88.6689 38.3933 88.9223 38.6272 89.2146 38.939ZM83.4075 40.1666L82.8034 40.7707C82.5501 40.5174 82.3357 40.4005 82.1408 40.4005C82.0239 40.4005 81.946 40.42 81.8875 40.4784C81.8291 40.5174 81.7901 40.5759 81.7901 40.6538C81.7901 40.7123 81.8096 40.7512 81.8485 40.7902C81.8875 40.8292 81.985 40.8876 82.1408 40.9656L82.4916 41.141C82.8619 41.3358 83.1347 41.5112 83.2711 41.7061C83.4075 41.901 83.4854 42.1348 83.4854 42.3881C83.4854 42.7389 83.349 43.0312 83.0957 43.265C82.8424 43.4989 82.4916 43.6158 82.0629 43.6158C81.4978 43.6158 81.0301 43.4014 80.6988 42.9532L81.3029 42.2907C81.4198 42.4271 81.5562 42.544 81.7121 42.622C81.868 42.6999 82.0044 42.7389 82.1214 42.7389C82.2578 42.7389 82.3552 42.6999 82.4331 42.6415C82.5111 42.583 82.5501 42.505 82.5501 42.4271C82.5501 42.2712 82.4137 42.1348 82.1214 41.9789L81.7901 41.8035C81.147 41.4917 80.8352 41.0825 80.8352 40.6148C80.8352 40.303 80.9522 40.0497 81.186 39.8159C81.4198 39.6015 81.7316 39.4846 82.1019 39.4846C82.3552 39.4846 82.589 39.543 82.8229 39.66C83.0567 39.7964 83.2516 39.9523 83.4075 40.1666ZM80.1532 40.1666L79.5491 40.7707C79.2958 40.5174 79.0814 40.4005 78.8865 40.4005C78.7696 40.4005 78.6917 40.42 78.6332 40.4784C78.5748 40.5174 78.5358 40.5759 78.5358 40.6538C78.5358 40.7123 78.5553 40.7512 78.5942 40.7902C78.6332 40.8292 78.7307 40.8876 78.8865 40.9656L79.2373 41.141C79.6076 41.3358 79.8804 41.5112 80.0168 41.7061C80.1532 41.901 80.2311 42.1348 80.2311 42.3881C80.2311 42.7389 80.0947 43.0312 79.8414 43.265C79.5881 43.4989 79.2373 43.6158 78.8086 43.6158C78.2435 43.6158 77.7758 43.4014 77.4445 42.9532L78.0486 42.2907C78.1655 42.4271 78.3019 42.544 78.4578 42.622C78.6137 42.6999 78.7501 42.7389 78.8671 42.7389C79.0035 42.7389 79.1009 42.6999 79.1789 42.6415C79.2568 42.583 79.2958 42.505 79.2958 42.4271C79.2958 42.2712 79.1594 42.1348 78.8671 41.9789L78.5358 41.8035C77.8927 41.4917 77.5809 41.0825 77.5809 40.6148C77.5809 40.303 77.6978 40.0497 77.9317 39.8159C78.1655 39.6015 78.4773 39.4846 78.8476 39.4846C79.1009 39.4846 79.3347 39.543 79.5686 39.66C79.8024 39.7964 79.9973 39.9523 80.1532 40.1666ZM75.9635 41.0825C75.9051 40.8682 75.7687 40.6928 75.5738 40.5564C75.3789 40.42 75.1646 40.3615 74.9112 40.3615C74.6384 40.3615 74.4046 40.4394 74.1902 40.5953C74.0538 40.6928 73.9369 40.8487 73.8394 41.102H75.9635V41.0825ZM76.9573 41.8425H73.8005C73.8395 42.1153 73.9759 42.3492 74.1707 42.505C74.3656 42.6609 74.6189 42.7584 74.9307 42.7584C75.301 42.7584 75.6128 42.622 75.8661 42.3686L76.6845 42.7584C76.4702 43.0507 76.2363 43.265 75.944 43.4014C75.6517 43.5378 75.3204 43.6158 74.9112 43.6158C74.3071 43.6158 73.8005 43.4209 73.4107 43.0312C73.021 42.6415 72.8261 42.1543 72.8261 41.5697C72.8261 40.9656 73.021 40.4784 73.4107 40.0887C73.8005 39.6989 74.2876 39.5041 74.8528 39.5041C75.4763 39.5041 75.9635 39.6989 76.3533 40.0887C76.743 40.4784 76.9379 41.0046 76.9379 41.6476L76.9573 41.8425ZM68.5975 39.6015H69.5718V40.0107C69.7862 39.8159 70.0005 39.6989 70.1759 39.621C70.3513 39.543 70.5462 39.5041 70.741 39.5041C71.1308 39.5041 71.4621 39.6405 71.7349 39.9133C71.9687 40.1471 72.0856 40.4784 72.0856 40.9266V43.5184H71.1113V41.8035C71.1113 41.3358 71.0918 41.024 71.0528 40.8682C71.0139 40.7123 70.9359 40.5953 70.8385 40.5174C70.741 40.4394 70.6046 40.4005 70.4487 40.4005C70.2539 40.4005 70.0785 40.4589 69.9421 40.5953C69.8057 40.7317 69.7082 40.9071 69.6498 41.141C69.6303 41.2579 69.6108 41.5307 69.6108 41.9399V43.5184H68.6365V39.6015H68.5975ZM66.7267 39.6015H67.7011V43.5184H66.7267V39.6015ZM67.2139 37.9841C67.3893 37.9841 67.5257 38.0426 67.6621 38.179C67.779 38.2959 67.857 38.4518 67.857 38.6272C67.857 38.8025 67.7985 38.9584 67.6816 39.0754C67.5647 39.1923 67.4088 39.2507 67.2334 39.2507C67.058 39.2507 66.9021 39.1923 66.7852 39.0559C66.6683 38.939 66.5903 38.7831 66.5903 38.6077C66.5903 38.4323 66.6488 38.2959 66.7657 38.1595C66.8826 38.062 67.0385 37.9841 67.2139 37.9841ZM65.9668 40.1666L65.3627 40.7707C65.1093 40.5174 64.895 40.4005 64.7001 40.4005C64.5832 40.4005 64.5053 40.42 64.4468 40.4784C64.3883 40.5174 64.3494 40.5759 64.3494 40.6538C64.3494 40.7123 64.3688 40.7512 64.4078 40.7902C64.4468 40.8292 64.5442 40.8876 64.7001 40.9656L65.0509 41.141C65.4211 41.3358 65.694 41.5112 65.8304 41.7061C65.9668 41.901 66.0447 42.1348 66.0447 42.3881C66.0447 42.7389 65.9083 43.0312 65.655 43.265C65.4016 43.4989 65.0509 43.6158 64.6222 43.6158C64.0571 43.6158 63.5894 43.4014 63.2581 42.9532L63.8622 42.2907C63.9791 42.4271 64.1155 42.544 64.2714 42.622C64.4273 42.6999 64.5637 42.7389 64.6806 42.7389C64.817 42.7389 64.9145 42.6999 64.9924 42.6415C65.0704 42.583 65.1093 42.505 65.1093 42.4271C65.1093 42.2712 64.9729 42.1348 64.6806 41.9789L64.3494 41.8035C63.7063 41.4917 63.3945 41.0825 63.3945 40.6148C63.3945 40.303 63.5114 40.0497 63.7453 39.8159C63.9791 39.6015 64.2909 39.4846 64.6611 39.4846C64.9145 39.4846 65.1483 39.543 65.3822 39.66C65.6355 39.7964 65.8109 39.9523 65.9668 40.1666ZM59.1464 39.6015H60.1402V41.4917C60.1402 41.862 60.1597 42.1153 60.2181 42.2517C60.2766 42.3881 60.3546 42.505 60.4715 42.583C60.5884 42.6609 60.7248 42.6999 60.8807 42.6999C61.0366 42.6999 61.1925 42.6609 61.2899 42.583C61.4068 42.505 61.4848 42.3881 61.5433 42.2322C61.5822 42.1153 61.6017 41.8815 61.6017 41.5112V39.6015H62.5761V41.2579C62.5761 41.9399 62.5176 42.4076 62.4202 42.6609C62.2838 42.9727 62.0889 43.2066 61.8356 43.3625C61.5822 43.5184 61.2509 43.6158 60.8612 43.6158C60.4325 43.6158 60.0817 43.5184 59.8089 43.3235C59.5361 43.1286 59.3607 42.8558 59.2438 42.5245C59.1659 42.2907 59.1269 41.862 59.1269 41.2189V39.6015H59.1464ZM55.97 41.1994V42.5635H56.2233C56.6521 42.5635 56.9444 42.505 57.0808 42.4076C57.2367 42.3102 57.2951 42.1543 57.2951 41.9399C57.2951 41.7061 57.2172 41.5307 57.0418 41.3943C56.8664 41.2579 56.5741 41.1994 56.1844 41.1994H55.97ZM55.97 39.1923V40.3225H56.2039C56.4572 40.3225 56.6326 40.2641 56.769 40.1666C56.8859 40.0692 56.9444 39.9133 56.9444 39.7379C56.9444 39.5625 56.8859 39.4456 56.769 39.3482C56.6521 39.2507 56.4767 39.1923 56.2428 39.1923H55.97ZM54.9567 43.5184V38.2179H55.7946C56.2818 38.2179 56.6326 38.2569 56.8664 38.3154C57.1782 38.3933 57.4315 38.5492 57.6264 38.7831C57.8213 39.0169 57.9187 39.2897 57.9187 39.582C57.9187 39.7769 57.8797 39.9718 57.7823 40.1277C57.7043 40.2835 57.5679 40.4394 57.3731 40.5953C57.6849 40.7512 57.9382 40.9266 58.0746 41.1605C58.2305 41.3943 58.2889 41.6476 58.2889 41.9594C58.2889 42.2517 58.211 42.5245 58.0551 42.7779C57.8992 43.0312 57.7043 43.2066 57.451 43.3235C57.1977 43.4404 56.8664 43.4989 56.4377 43.4989H54.9567V43.5184ZM126.98 35.4898C126.785 35.3144 126.532 35.0026 126.201 34.5934C125.85 34.8857 125.655 35.139 125.655 35.3729C125.655 35.4703 125.713 35.5677 125.811 35.6652C125.908 35.7431 126.025 35.8016 126.181 35.8016C126.395 35.7626 126.668 35.6847 126.98 35.4898ZM126.376 33.3073C126.649 33.0734 126.785 32.8785 126.785 32.7032C126.785 32.6057 126.746 32.5473 126.688 32.4888C126.629 32.4303 126.551 32.4109 126.454 32.4109C126.357 32.4109 126.279 32.4498 126.22 32.5083C126.162 32.5668 126.123 32.6447 126.123 32.7421C126.123 32.8785 126.22 33.0734 126.376 33.3073ZM128.305 34.4765L128.909 35.1585L128.636 35.4118L128.364 35.6652L129.221 36.581H127.993L127.643 36.2108C127.078 36.5421 126.571 36.698 126.084 36.698C125.674 36.698 125.343 36.581 125.09 36.3472C124.837 36.1134 124.72 35.8016 124.72 35.4313C124.72 35.1585 124.798 34.8857 124.934 34.6324C125.07 34.379 125.324 34.1257 125.674 33.8529C125.343 33.3852 125.168 32.9955 125.168 32.6252C125.168 32.3719 125.285 32.0991 125.499 31.8457C125.733 31.5924 126.045 31.456 126.454 31.456C126.863 31.456 127.194 31.5729 127.409 31.8263C127.623 32.0796 127.74 32.3329 127.74 32.5862C127.74 32.7811 127.682 32.976 127.584 33.1708C127.487 33.3657 127.253 33.6385 126.883 33.9893C127.311 34.496 127.584 34.8077 127.721 34.9442C127.779 34.9052 127.993 34.7298 128.305 34.4765ZM119.809 33.4632C119.497 33.4632 119.244 33.5606 119.029 33.7749C118.835 33.9893 118.718 34.2426 118.718 34.5544C118.718 34.8857 118.815 35.139 119.029 35.3534C119.244 35.5677 119.497 35.6652 119.809 35.6652C120.121 35.6652 120.374 35.5677 120.569 35.3534C120.764 35.1585 120.861 34.8857 120.861 34.5544C120.861 34.2231 120.764 33.9698 120.569 33.7555C120.374 33.5606 120.121 33.4632 119.809 33.4632ZM120.822 32.6252H121.797V35.977C121.797 36.6395 121.66 37.1267 121.387 37.4385C121.037 37.8672 120.491 38.0815 119.77 38.0815C119.38 38.0815 119.068 38.0426 118.796 37.9451C118.542 37.8477 118.308 37.7113 118.133 37.5164C117.958 37.3215 117.821 37.1072 117.724 36.8344H118.815C118.913 36.9513 119.029 37.0292 119.185 37.0877C119.341 37.1462 119.517 37.1657 119.731 37.1657C120.004 37.1657 120.218 37.1267 120.374 37.0487C120.53 36.9708 120.647 36.8539 120.725 36.7369C120.783 36.6005 120.822 36.3862 120.822 36.0744C120.647 36.2498 120.471 36.3667 120.277 36.4446C120.082 36.5226 119.867 36.5616 119.634 36.5616C119.107 36.5616 118.659 36.3667 118.289 35.9964C117.919 35.6262 117.743 35.139 117.743 34.5544C117.743 33.9308 117.938 33.4242 118.328 33.0539C118.679 32.7227 119.088 32.5473 119.575 32.5473C119.809 32.5473 120.023 32.5862 120.218 32.6642C120.413 32.7421 120.627 32.8785 120.822 33.0734V32.6252ZM113.495 32.6252H114.47V33.0344C114.684 32.8396 114.898 32.7227 115.074 32.6447C115.249 32.5668 115.444 32.5278 115.639 32.5278C116.028 32.5278 116.36 32.6642 116.633 32.937C116.866 33.1709 116.983 33.5021 116.983 33.9503V36.5421H116.009V34.8272C116.009 34.3595 115.99 34.0478 115.951 33.8919C115.912 33.736 115.834 33.619 115.736 33.5411C115.639 33.4632 115.502 33.4242 115.346 33.4242C115.152 33.4242 114.976 33.4826 114.84 33.619C114.703 33.7555 114.606 33.9308 114.547 34.1647C114.528 34.2816 114.509 34.5544 114.509 34.9636V36.5421H113.534V32.6252H113.495ZM111.624 32.6252H112.599V36.5421H111.624V32.6252ZM112.112 31.0273C112.287 31.0273 112.423 31.0858 112.56 31.2222C112.677 31.3391 112.755 31.495 112.755 31.6704C112.755 31.8457 112.696 32.0016 112.579 32.1186C112.462 32.2355 112.306 32.2939 112.131 32.2939C111.956 32.2939 111.8 32.2355 111.683 32.0991C111.566 31.9822 111.488 31.8263 111.488 31.6509C111.488 31.4755 111.547 31.3391 111.663 31.2027C111.78 31.0858 111.936 31.0273 112.112 31.0273ZM109.617 31.1832H110.592V32.6252H111.176V33.4826H110.592V36.5616H109.617V33.4826H109.111V32.6252H109.617V31.1832ZM105.077 32.6252H106.051V33.0344C106.266 32.8396 106.48 32.7227 106.655 32.6447C106.831 32.5668 107.026 32.5278 107.22 32.5278C107.61 32.5278 107.941 32.6642 108.214 32.937C108.448 33.1709 108.565 33.5021 108.565 33.9503V36.5421H107.591V34.8272C107.591 34.3595 107.571 34.0478 107.532 33.8919C107.493 33.736 107.415 33.619 107.318 33.5411C107.22 33.4632 107.084 33.4242 106.928 33.4242C106.733 33.4242 106.558 33.4826 106.421 33.619C106.285 33.7555 106.188 33.9308 106.129 34.1647C106.11 34.2816 106.09 34.5544 106.09 34.9636V36.5421H105.116V32.6252H105.077ZM100.634 32.6252H101.628V34.5154C101.628 34.8857 101.647 35.139 101.706 35.2754C101.764 35.4118 101.842 35.5288 101.939 35.6067C102.056 35.6847 102.193 35.7236 102.349 35.7236C102.505 35.7236 102.66 35.6847 102.758 35.6067C102.875 35.5288 102.953 35.4118 103.011 35.2559C103.05 35.139 103.07 34.9052 103.07 34.5349V32.6252H104.044V34.2816C104.044 34.9636 103.986 35.4313 103.888 35.6847C103.752 35.9964 103.557 36.2303 103.304 36.3862C103.05 36.5421 102.719 36.6395 102.329 36.6395C101.901 36.6395 101.55 36.5421 101.277 36.3472C101.004 36.1523 100.829 35.8795 100.712 35.5482C100.634 35.3144 100.595 34.8857 100.595 34.2426V32.6252H100.634ZM97.7693 33.4632C97.4575 33.4632 97.2042 33.5606 97.0093 33.7749C96.8144 33.9893 96.6975 34.2621 96.6975 34.5934C96.6975 34.9247 96.795 35.217 96.9898 35.4118C97.1847 35.6262 97.438 35.7236 97.7498 35.7236C98.0616 35.7236 98.3149 35.6262 98.5098 35.4118C98.7047 35.1975 98.8216 34.9247 98.8216 34.5934C98.8216 34.2621 98.7242 33.9893 98.5293 33.7749C98.3344 33.5606 98.0811 33.4632 97.7693 33.4632ZM97.7498 32.5278C98.1201 32.5278 98.4708 32.6252 98.8021 32.8006C99.1334 32.976 99.3867 33.2293 99.5621 33.5606C99.7375 33.8724 99.8349 34.2231 99.8349 34.5934C99.8349 34.9636 99.7375 35.3144 99.5621 35.6262C99.3867 35.938 99.1334 36.1913 98.8021 36.3862C98.4903 36.5616 98.1395 36.659 97.7498 36.659C97.1847 36.659 96.6975 36.4641 96.3078 36.0549C95.918 35.6457 95.7037 35.178 95.7037 34.5934C95.7037 33.9893 95.9375 33.4632 96.3857 33.0734C96.795 32.7227 97.2432 32.5278 97.7498 32.5278ZM95.0217 33.4242L94.2032 33.8724C94.0473 33.7165 93.8914 33.5996 93.755 33.5411C93.5991 33.4826 93.4237 33.4437 93.2289 33.4437C92.8586 33.4437 92.5663 33.5606 92.3325 33.7749C92.0986 33.9893 92.0012 34.2816 92.0012 34.6129C92.0012 34.9442 92.1181 35.217 92.3325 35.4313C92.5468 35.6457 92.8391 35.7431 93.1899 35.7431C93.6381 35.7431 93.9694 35.5872 94.2227 35.2949L95.0022 35.8211C94.5735 36.3667 93.9888 36.6395 93.2289 36.6395C92.5468 36.6395 92.0012 36.4446 91.6115 36.0354C91.2217 35.6262 91.0269 35.1585 91.0269 34.6129C91.0269 34.2426 91.1243 33.8919 91.3192 33.5606C91.514 33.2488 91.7673 32.9955 92.1181 32.8006C92.4494 32.6252 92.8391 32.5278 93.2678 32.5278C93.6576 32.5278 94.0083 32.6057 94.3201 32.7616C94.5735 32.9175 94.8268 33.1514 95.0217 33.4242ZM90.3058 33.4242L89.4874 33.8724C89.3315 33.7165 89.1756 33.5996 89.0392 33.5411C88.8833 33.4826 88.7079 33.4437 88.513 33.4437C88.1428 33.4437 87.8505 33.5606 87.6167 33.7749C87.3828 33.9893 87.2854 34.2816 87.2854 34.6129C87.2854 34.9442 87.4023 35.217 87.6167 35.4313C87.831 35.6457 88.1233 35.7431 88.4741 35.7431C88.9223 35.7431 89.2536 35.5872 89.5069 35.2949L90.2864 35.8211C89.8576 36.3667 89.273 36.6395 88.513 36.6395C87.831 36.6395 87.2854 36.4446 86.8956 36.0354C86.5059 35.6262 86.311 35.1585 86.311 34.6129C86.311 34.2426 86.4085 33.8919 86.6033 33.5606C86.7982 33.2488 87.0515 32.9955 87.4023 32.8006C87.7336 32.6252 88.1233 32.5278 88.552 32.5278C88.9418 32.5278 89.2925 32.6057 89.6043 32.7616C89.8382 32.9175 90.0915 33.1514 90.3058 33.4242ZM83.2321 32.6642L82.5111 34.496H83.9531L83.2321 32.6642ZM82.7255 31.2611H83.7388L85.7849 36.5616H84.7326L84.3234 35.4703H82.1408L81.7121 36.5616H80.6598L82.7255 31.2611ZM78.0486 33.4242L77.2302 33.8724C77.0743 33.7165 76.9184 33.5996 76.782 33.5411C76.6261 33.4826 76.4507 33.4437 76.2558 33.4437C75.8856 33.4437 75.5933 33.5606 75.3594 33.7749C75.1256 33.9893 75.0281 34.2816 75.0281 34.6129C75.0281 34.9442 75.1451 35.217 75.3594 35.4313C75.5738 35.6457 75.8661 35.7431 76.2168 35.7431C76.665 35.7431 76.9963 35.5872 77.2496 35.2949L78.0291 35.8211C77.6004 36.3667 77.0158 36.6395 76.2558 36.6395C75.5738 36.6395 75.0281 36.4446 74.6384 36.0354C74.2487 35.6262 74.0538 35.1585 74.0538 34.6129C74.0538 34.2426 74.1512 33.8919 74.3461 33.5606C74.541 33.2488 74.7943 32.9955 75.1451 32.8006C75.4763 32.6252 75.8661 32.5278 76.2948 32.5278C76.6845 32.5278 77.0353 32.6057 77.3471 32.7616C77.6004 32.9175 77.8537 33.1514 78.0486 33.4242ZM72.3195 32.6252H73.2938V36.5421H72.3195V32.6252ZM72.8261 31.0273C73.0015 31.0273 73.1379 31.0858 73.2743 31.2222C73.3913 31.3391 73.4692 31.495 73.4692 31.6704C73.4692 31.8457 73.4107 32.0016 73.2938 32.1186C73.1769 32.2355 73.021 32.2939 72.8456 32.2939C72.6702 32.2939 72.5143 32.2355 72.3974 32.0991C72.2805 31.9822 72.2026 31.8263 72.2026 31.6509C72.2026 31.4755 72.261 31.3391 72.3779 31.2027C72.4949 31.0858 72.6508 31.0273 72.8261 31.0273ZM69.9031 32.6252H70.2539C70.2539 32.1186 70.2734 31.8068 70.2734 31.7093C70.2928 31.495 70.3903 31.3196 70.5462 31.2027C70.7021 31.0858 70.9164 31.0078 71.2087 31.0078C71.4036 31.0078 71.6374 31.0468 71.8908 31.1442V31.8847C71.7544 31.8457 71.6374 31.8263 71.54 31.8263C71.4231 31.8263 71.3451 31.8457 71.2867 31.9042C71.2477 31.9432 71.2282 32.0211 71.2282 32.1186V32.6057H71.8518V33.4437H71.2282V36.5226H70.2539V33.4437H69.9031V32.6252ZM68.5001 32.6252H69.4744V36.5421H68.5001V32.6252ZM68.9872 31.0273C69.1626 31.0273 69.299 31.0858 69.4354 31.2222C69.5523 31.3391 69.6303 31.495 69.6303 31.6704C69.6303 31.8457 69.5718 32.0016 69.4549 32.1186C69.338 32.2355 69.1821 32.2939 69.0067 32.2939C68.8313 32.2939 68.6754 32.2355 68.5585 32.0991C68.4416 31.9822 68.3636 31.8263 68.3636 31.6509C68.3636 31.4755 68.4221 31.3391 68.539 31.2027C68.656 31.0858 68.8118 31.0273 68.9872 31.0273ZM67.7011 33.4242L66.8826 33.8724C66.7268 33.7165 66.5709 33.5996 66.4344 33.5411C66.2786 33.4826 66.1032 33.4437 65.9083 33.4437C65.5381 33.4437 65.2458 33.5606 65.0119 33.7749C64.7781 33.9893 64.6806 34.2816 64.6806 34.6129C64.6806 34.9442 64.7976 35.217 65.0119 35.4313C65.2263 35.6457 65.5186 35.7431 65.8693 35.7431C66.3175 35.7431 66.6488 35.5872 66.9021 35.2949L67.6816 35.8211C67.2529 36.3667 66.6683 36.6395 65.9083 36.6395C65.2263 36.6395 64.6806 36.4446 64.2909 36.0354C63.9012 35.6262 63.7063 35.1585 63.7063 34.6129C63.7063 34.2426 63.8037 33.8919 63.9986 33.5606C64.1935 33.2488 64.4468 32.9955 64.7976 32.8006C65.1288 32.6252 65.5186 32.5278 65.9473 32.5278C66.337 32.5278 66.6878 32.6057 66.9996 32.7616C67.2529 32.9175 67.5062 33.1514 67.7011 33.4242ZM60.8612 33.4437C60.5494 33.4437 60.2961 33.5411 60.1012 33.7749C59.9064 33.9893 59.7894 34.2621 59.7894 34.5934C59.7894 34.9247 59.8869 35.217 60.1012 35.4313C60.3156 35.6457 60.5494 35.7626 60.8612 35.7626C61.173 35.7626 61.4263 35.6652 61.6212 35.4313C61.8161 35.217 61.933 34.9442 61.933 34.5934C61.933 34.2426 61.8356 33.9698 61.6212 33.7555C61.4263 33.5411 61.173 33.4437 60.8612 33.4437ZM61.894 32.6252H62.8684V36.5421H61.894V36.1328C61.6991 36.3082 61.5043 36.4446 61.3094 36.5226C61.1145 36.6005 60.9002 36.6395 60.6858 36.6395C60.1792 36.6395 59.731 36.4446 59.3607 36.0549C58.9905 35.6652 58.8151 35.178 58.8151 34.5934C58.8151 33.9893 58.9905 33.5021 59.3607 33.1124C59.7115 32.7227 60.1597 32.5278 60.6663 32.5278C60.9002 32.5278 61.1145 32.5668 61.3289 32.6642C61.5433 32.7421 61.7186 32.8785 61.894 33.0539V32.6252ZM55.97 33.3267H56.3013C56.5546 33.3267 56.73 33.3073 56.8274 33.2683C56.9249 33.2293 57.0028 33.1709 57.0613 33.0929C57.1197 33.015 57.1392 32.9175 57.1392 32.7811C57.1392 32.5668 57.0613 32.4303 56.9054 32.3329C56.7885 32.255 56.5741 32.2355 56.2623 32.2355H55.97V33.3267ZM54.9567 31.2611H56.0285C56.6131 31.2611 57.0223 31.3196 57.2756 31.417C57.529 31.5145 57.7433 31.6898 57.8797 31.9432C58.0356 32.177 58.0941 32.4693 58.0941 32.8006C58.0941 33.1709 57.9966 33.4826 57.8018 33.7165C57.6069 33.9698 57.3536 34.1257 57.0028 34.2231C56.8079 34.2816 56.4572 34.3011 55.931 34.3011V36.5421H54.9177V31.2611H54.9567Z" fill="#F9F9F9"/>
</svg>
